General
Metal.Hurlant.S01E04.Red.Light.Cold.Hard.Facts.720p.AC3.2.0.x264.mkv
Format                                   : Matroska
Format version                           : Version 2
File size                                : 355 MiB
Duration                                 : 21mn 39s
Overall bit rate                         : 2 294 Kbps

Video
ID                                       : 1
Format                                   : AVC
Format/Info                              : Advanced Video Codec
Format profile                           : High@L4.1
Format settings, CABAC                   : Yes
Format settings, ReFrames                : 9 frames
Codec ID                                 : V_MPEG4/ISO/AVC
Duration                                 : 21mn 39s
Bit rate                                 : 1 801 Kbps
Width                                    : 1 280 pixels
Height                                   : 720 pixels
Display aspect ratio                     : 16:9
Frame rate mode                          : Constant
Frame rate                               : 25.000 fps
Color space                              : YUV
Chroma subsampling                       : 4:2:0
Bit depth                                : 8 bits
Scan type                                : Progressive
Bits/(Pixel*Frame)                       : 0.078
Stream size                              : 279 MiB (78%)

Audio
ID                                       : 2
Format                                   : AC-3
Format/Info                              : Audio Coding 3
Mode extension                           : CM (complete main)
Format settings, Endianness              : Big
Codec ID                                 : A_AC3
Duration                                 : 21mn 39s
Bit rate mode                            : Constant
Bit rate                                 : 448 Kbps
Channel(s)                               : 2 channels
Channel positions                        : Front: L R
Sampling rate                            : 48.0 KHz
Bit depth                                : 16 bits
Compression mode                         : Lossy
Stream size                              : 69.4 MiB (20%)

Hail, Master Tozz!
A new episode of Metal Hurlant!

Enjoy and seed it, buddies!
@helder1965